<?xml version="1.0" encoding="utf-8"?>
<!-- Generator: Adobe Illustrator 24.2.1, SVG Export Plug-In . SVG Version: 6.00 Build 0)  -->
<svg version="1.1" id="Layer_1" xmlns="http://www.w3.org/2000/svg" xmlns:xlink="http://www.w3.org/1999/xlink" x="0px" y="0px"
	 viewBox="0 0 268.3 95.2" style="enable-background:new 0 0 268.3 95.2;" xml:space="preserve">
<style type="text/css">
	.st0{fill:#231F20;stroke:#000000;stroke-miterlimit:10;}
	.st1{fill:#BE1E2D;stroke:#581B00;stroke-miterlimit:10;}
	.st2{stroke:#000000;stroke-width:6;stroke-miterlimit:10;}
</style>
<path class="st0" d="M64.3,71.9c0.6,5.3-12.1,11-28.3,12.7c-16.2,1.7-29.8-1.2-30.3-6.5c-0.6-5.3,12.1-11,28.3-12.7
	C50.2,63.7,63.7,66.6,64.3,71.9z"/>
<path class="st1" d="M5.9,77.3c0,0,0.1-24.4,20.7-46.3c0,0,8.2-6.8,17.3-8.8s32.7-8.4,32.7-8.4s14.6,1,17.2,6.6
	c2.6,5.5,8,0.2-1.5,2.6c0,0-6.7-4.8-14.8,1.3c-8.1,6.1-14.7,9-18.5,16.1c-3.8,7.1,8.3,14.6,7.1,26.6c-1.2,11.9,4.7,0-2.7,9.5
	c-7.4,9.5-22.2-2.9-34.9-2.5C15.8,74.3,5.9,77.3,5.9,77.3z"/>
<g>
	<path class="st2" d="M142.2,60.5c0,3.2-0.6,6.1-1.8,8.5c-1.2,2.4-2.8,4.4-4.8,5.9c-1.8,1.4-4,2.4-6.4,3.1c-2.4,0.7-5,1.1-7.9,1.1
		c-1.6,0-3.2-0.1-4.9-0.2c-1.7-0.1-2.7-0.2-2.9-0.2l-0.3-6.8c0.3,0.1,1.3,0.2,2.9,0.4c1.6,0.2,3.4,0.3,5.6,0.3c1.3,0,3-0.2,5.1-0.7
		c2.1-0.4,3.7-1,4.8-1.7c1.5-0.9,2.6-2,3.3-3.3c0.8-1.3,1.2-2.9,1.2-4.9c0-2.1-0.4-3.9-1.2-5.3c-0.8-1.5-2.1-2.9-3.9-4.2
		c-1.2-0.9-2.7-1.9-4.5-3c-1.8-1.1-3.5-2.2-5-3.4c-2.5-1.9-4.3-4.1-5.4-6.4c-1.1-2.3-1.6-4.9-1.6-7.7c0-2.9,0.5-5.4,1.5-7.5
		c1-2.1,2.2-3.9,3.8-5.4c1.6-1.5,3.5-2.6,5.8-3.4c2.3-0.8,4.8-1.1,7.6-1.1c1.5,0,3.1,0.1,4.6,0.2c1.6,0.1,2.5,0.2,2.7,0.2l0.5,6.8
		c-0.2,0-1.1-0.1-2.7-0.3c-1.6-0.2-3.5-0.3-5.8-0.3c-1.4,0-2.8,0.2-4.3,0.6c-1.5,0.4-2.7,1-3.9,1.8c-1,0.7-1.8,1.7-2.5,3
		c-0.7,1.3-1,2.8-1,4.5c0,1.5,0.4,3,1.1,4.4c0.7,1.4,2.1,2.9,4.1,4.4c1,0.8,2.3,1.7,4,2.7c1.7,1,3.3,2.1,4.9,3.3
		c2.5,1.8,4.3,4,5.6,6.4C141.6,54.7,142.2,57.4,142.2,60.5z"/>
	<path class="st2" d="M196.6,75.7l-5.7,3.8c-0.1-0.3-0.9-2.7-2.4-7c-1.5-4.3-3.4-9.9-5.8-16.7h-21.8c-2.6,7.3-4.6,12.9-6,17
		c-1.4,4-2.2,6.2-2.3,6.7l-4.9-3.4c0.6-1.6,3.3-8.8,7.9-21.5s9.5-26.1,14.4-40.1h4.8c4.9,14,9.8,27.6,14.5,40.7
		C193.9,68.3,196.4,75.1,196.6,75.7z M180.6,49.8c-1.3-3.8-2.7-7.8-4.1-12c-1.4-4.2-3-8.5-4.6-13.1l-0.1,0
		c-1.2,3.4-2.7,7.7-4.5,12.7c-1.7,5-3.2,9.1-4.3,12.3l0,0L180.6,49.8L180.6,49.8z"/>
	<path class="st2" d="M238.4,72.4c0,0.3-0.1,1.1-0.2,2.4c-0.1,1.3-0.2,2.7-0.3,4.2c-0.2,0-0.4,0-0.6,0s-0.4,0-0.6,0
		c-6,0-11.3-1-16-2.9c-4.7-1.9-8.5-4.7-11.5-8.4c-2.1-2.5-3.7-5.6-5-9.1c-1.2-3.5-1.8-7.6-1.8-12.1c0-4.1,0.6-7.8,1.8-11.2
		c1.2-3.4,2.8-6.3,4.7-8.8c2.8-3.6,6.6-6.5,11.4-8.6c4.8-2.1,9.9-3.2,15.3-3.2c0.3,0,0.6,0,0.9,0c0.3,0,0.6,0,0.7,0
		c0,0.6,0.1,1.5,0.1,2.7c0.1,1.2,0.2,2.6,0.3,4c-0.2,0-0.5,0-0.6,0s-0.4,0-0.6,0c-3.1,0-6.3,0.4-9.6,1.3c-3.3,0.9-6.1,2.2-8.5,3.9
		c-3.1,2.3-5.5,5.1-7.2,8.7c-1.7,3.5-2.5,7.3-2.5,11.4c0,4.2,0.8,8.1,2.3,11.5c1.5,3.5,3.9,6.4,7.1,8.7c2.7,1.9,5.6,3.4,8.9,4.2
		c3.3,0.9,6.6,1.3,9.8,1.3c0.1,0,0.4,0,0.7,0C237.7,72.5,238,72.4,238.4,72.4z"/>
	<path class="st2" d="M255.4,78.2h-6.1c0-1.9,0.1-5.2,0.1-10c0-4.8,0.1-11.7,0.1-20.8c0-3.6,0-8.2,0-14c0-5.8-0.1-11.8-0.1-18h6.1
		c0,4.5-0.1,9.7-0.1,15.6c0,5.9-0.1,10.8-0.1,14.5c0,9.5,0,16.9,0.1,22.1C255.4,72.8,255.4,76.3,255.4,78.2z"/>
</g>
</svg>
